<svg xmlns="http://www.w3.org/2000/svg" xmlns:xlink="http://www.w3.org/1999/xlink" width="1920" zoomAndPan="magnify" viewBox="0 0 1440 809.999993" height="1080" preserveAspectRatio="xMidYMid meet" version="1.0"><defs><g/><clipPath id="2c8642fafd"><path d="M 929 217.625 L 1077 217.625 L 1077 364 L 929 364 Z M 929 217.625 " clip-rule="nonzero"/></clipPath><clipPath id="c71e6ca09e"><path d="M 886.484375 359 L 1119.476562 359 L 1119.476562 477.875 L 886.484375 477.875 Z M 886.484375 359 " clip-rule="nonzero"/></clipPath><clipPath id="653af3d7fa"><path d="M 339 217.625 L 486 217.625 L 486 364 L 339 364 Z M 339 217.625 " clip-rule="nonzero"/></clipPath><clipPath id="90d66b29d6"><path d="M 295.824219 359 L 528.886719 359 L 528.886719 477.75 L 295.824219 477.75 Z M 295.824219 359 " clip-rule="nonzero"/></clipPath></defs><rect x="-144" width="1728" fill="#ffffff" y="-80.999999" height="971.999992" fill-opacity="1"/><rect x="-144" width="1728" fill="#06203d" y="-80.999999" height="971.999992" fill-opacity="1"/><g clip-path="url(#2c8642fafd)"><path fill="#05b9d8" d="M 1076.03125 290.757812 C 1076.03125 331.140625 1043.324219 363.878906 1002.976562 363.878906 C 962.636719 363.878906 929.921875 331.140625 929.921875 290.757812 C 929.921875 250.371094 962.636719 217.632812 1002.976562 217.632812 C 1043.324219 217.632812 1076.03125 250.371094 1076.03125 290.757812 " fill-opacity="1" fill-rule="nonzero"/></g><g clip-path="url(#c71e6ca09e)"><path fill="#05b9d8" d="M 1002.976562 477.914062 C 1048.460938 477.914062 1089.636719 469.765625 1119.476562 439.96875 C 1119.476562 402.449219 1084.265625 373.695312 1050.257812 359.132812 C 1038.078125 371.105469 1021.398438 378.492188 1002.976562 378.492188 C 984.5625 378.492188 967.875 371.105469 955.703125 359.132812 C 921.6875 373.695312 886.484375 400.820312 886.484375 439.96875 C 916.316406 469.765625 957.5 477.914062 1002.976562 477.914062 " fill-opacity="1" fill-rule="nonzero"/></g><g clip-path="url(#653af3d7fa)"><path fill="#ffffff" d="M 485.425781 290.710938 C 485.425781 331.070312 452.710938 363.785156 412.351562 363.785156 C 371.996094 363.785156 339.273438 331.070312 339.273438 290.710938 C 339.273438 250.347656 371.996094 217.632812 412.351562 217.632812 C 452.710938 217.632812 485.425781 250.347656 485.425781 290.710938 " fill-opacity="1" fill-rule="nonzero"/></g><g clip-path="url(#90d66b29d6)"><path fill="#ffffff" d="M 412.351562 477.75 C 457.851562 477.75 499.035156 469.605469 528.886719 439.828125 C 528.886719 402.335938 493.664062 373.59375 459.648438 359.042969 C 447.464844 371.007812 430.777344 378.390625 412.351562 378.390625 C 393.933594 378.390625 377.238281 371.007812 365.0625 359.042969 C 331.039062 373.59375 295.824219 400.703125 295.824219 439.828125 C 325.664062 469.605469 366.859375 477.75 412.351562 477.75 " fill-opacity="1" fill-rule="nonzero"/></g><g fill="#ffffff" fill-opacity="1"><g transform="translate(203.2802, 578.558476)"><g><path d="M 12.671875 -38.171875 L 12.671875 0 L 3.375 0 L 3.375 -38.171875 Z M 12.671875 -38.171875 "/></g></g></g><g fill="#ffffff" fill-opacity="1"><g transform="translate(220.40841, 578.558476)"><g><path d="M 37.515625 0 L 28.21875 0 L 12.671875 -23.546875 L 12.671875 0 L 3.375 0 L 3.375 -38.171875 L 12.671875 -38.171875 L 28.21875 -14.515625 L 28.21875 -38.171875 L 37.515625 -38.171875 Z M 37.515625 0 "/></g></g></g><g fill="#ffffff" fill-opacity="1"><g transform="translate(262.385925, 578.558476)"><g><path d="M 30.828125 -38.171875 L 30.828125 -30.71875 L 20.71875 -30.71875 L 20.71875 0 L 11.421875 0 L 11.421875 -30.71875 L 1.3125 -30.71875 L 1.3125 -38.171875 Z M 30.828125 -38.171875 "/></g></g></g><g fill="#ffffff" fill-opacity="1"><g transform="translate(295.609086, 578.558476)"><g><path d="M 12.671875 -30.71875 L 12.671875 -23 L 25.125 -23 L 25.125 -15.828125 L 12.671875 -15.828125 L 12.671875 -7.453125 L 26.75 -7.453125 L 26.75 0 L 3.375 0 L 3.375 -38.171875 L 26.75 -38.171875 L 26.75 -30.71875 Z M 12.671875 -30.71875 "/></g></g></g><g fill="#ffffff" fill-opacity="1"><g transform="translate(326.113513, 578.558476)"><g><path d="M 22.84375 0 L 14.90625 -14.40625 L 12.671875 -14.40625 L 12.671875 0 L 3.375 0 L 3.375 -38.171875 L 18.984375 -38.171875 C 21.984375 -38.171875 24.546875 -37.644531 26.671875 -36.59375 C 28.796875 -35.539062 30.378906 -34.097656 31.421875 -32.265625 C 32.472656 -30.441406 33 -28.40625 33 -26.15625 C 33 -23.613281 32.28125 -21.34375 30.84375 -19.34375 C 29.414062 -17.351562 27.304688 -15.941406 24.515625 -15.109375 L 33.328125 0 Z M 12.671875 -20.984375 L 18.4375 -20.984375 C 20.132812 -20.984375 21.410156 -21.398438 22.265625 -22.234375 C 23.117188 -23.066406 23.546875 -24.25 23.546875 -25.78125 C 23.546875 -27.226562 23.117188 -28.367188 22.265625 -29.203125 C 21.410156 -30.035156 20.132812 -30.453125 18.4375 -30.453125 L 12.671875 -30.453125 Z M 12.671875 -20.984375 "/></g></g></g><g fill="#ffffff" fill-opacity="1"><g transform="translate(362.653537, 578.558476)"><g><path d="M 37.515625 0 L 28.21875 0 L 12.671875 -23.546875 L 12.671875 0 L 3.375 0 L 3.375 -38.171875 L 12.671875 -38.171875 L 28.21875 -14.515625 L 28.21875 -38.171875 L 37.515625 -38.171875 Z M 37.515625 0 "/></g></g></g><g fill="#ffffff" fill-opacity="1"><g transform="translate(404.631042, 578.558476)"><g><path d="M 27.140625 -6.75 L 12.890625 -6.75 L 10.609375 0 L 0.875 0 L 14.6875 -38.171875 L 25.453125 -38.171875 L 39.265625 0 L 29.421875 0 Z M 24.734375 -13.921875 L 20.015625 -27.890625 L 15.328125 -13.921875 Z M 24.734375 -13.921875 "/></g></g></g><g fill="#ffffff" fill-opacity="1"><g transform="translate(445.792938, 578.558476)"><g><path d="M 12.671875 -7.171875 L 24.84375 -7.171875 L 24.84375 0 L 3.375 0 L 3.375 -38.171875 L 12.671875 -38.171875 Z M 12.671875 -7.171875 "/></g></g></g><g fill="#ffffff" fill-opacity="1"><g transform="translate(472.817374, 578.558476)"><g/></g></g><g fill="#ffffff" fill-opacity="1"><g transform="translate(485.432465, 578.558476)"><g><path d="M 39.203125 -38.171875 L 25.671875 0 L 14.03125 0 L 0.484375 -38.171875 L 10.390625 -38.171875 L 19.84375 -9.359375 L 29.359375 -38.171875 Z M 39.203125 -38.171875 "/></g></g></g><g fill="#ffffff" fill-opacity="1"><g transform="translate(526.213743, 578.558476)"><g><path d="M 12.671875 -38.171875 L 12.671875 0 L 3.375 0 L 3.375 -38.171875 Z M 12.671875 -38.171875 "/></g></g></g><g fill="#ffffff" fill-opacity="1"><g transform="translate(543.341934, 578.558476)"><g><path d="M 12.671875 -30.71875 L 12.671875 -23 L 25.125 -23 L 25.125 -15.828125 L 12.671875 -15.828125 L 12.671875 -7.453125 L 26.75 -7.453125 L 26.75 0 L 3.375 0 L 3.375 -38.171875 L 26.75 -38.171875 L 26.75 -30.71875 Z M 12.671875 -30.71875 "/></g></g></g><g fill="#ffffff" fill-opacity="1"><g transform="translate(573.84635, 578.558476)"><g><path d="M 55.890625 -38.171875 L 45.953125 0 L 34.6875 0 L 28.59375 -25.125 L 22.296875 0 L 11.03125 0 L 1.359375 -38.171875 L 11.3125 -38.171875 L 16.796875 -10.390625 L 23.59375 -38.171875 L 33.828125 -38.171875 L 40.34375 -10.390625 L 45.890625 -38.171875 Z M 55.890625 -38.171875 "/></g></g></g><g fill="#05b9d8" fill-opacity="1"><g transform="translate(772.624959, 578.558476)"><g><path d="M 1.796875 -19.140625 C 1.796875 -22.910156 2.609375 -26.269531 4.234375 -29.21875 C 5.867188 -32.175781 8.144531 -34.476562 11.0625 -36.125 C 13.976562 -37.78125 17.285156 -38.609375 20.984375 -38.609375 C 25.515625 -38.609375 29.394531 -37.410156 32.625 -35.015625 C 35.851562 -32.617188 38.007812 -29.359375 39.09375 -25.234375 L 28.875 -25.234375 C 28.113281 -26.828125 27.035156 -28.039062 25.640625 -28.875 C 24.242188 -29.707031 22.65625 -30.125 20.875 -30.125 C 18.007812 -30.125 15.6875 -29.125 13.90625 -27.125 C 12.132812 -25.132812 11.25 -22.472656 11.25 -19.140625 C 11.25 -15.804688 12.132812 -13.140625 13.90625 -11.140625 C 15.6875 -9.148438 18.007812 -8.15625 20.875 -8.15625 C 22.65625 -8.15625 24.242188 -8.570312 25.640625 -9.40625 C 27.035156 -10.238281 28.113281 -11.453125 28.875 -13.046875 L 39.09375 -13.046875 C 38.007812 -8.910156 35.851562 -5.65625 32.625 -3.28125 C 29.394531 -0.914062 25.515625 0.265625 20.984375 0.265625 C 17.285156 0.265625 13.976562 -0.554688 11.0625 -2.203125 C 8.144531 -3.847656 5.867188 -6.140625 4.234375 -9.078125 C 2.609375 -12.015625 1.796875 -15.367188 1.796875 -19.140625 Z M 1.796875 -19.140625 "/></g></g></g><g fill="#05b9d8" fill-opacity="1"><g transform="translate(815.146218, 578.558476)"><g><path d="M 12.5 -38.171875 L 12.5 -15.328125 C 12.5 -13.046875 13.0625 -11.285156 14.1875 -10.046875 C 15.3125 -8.816406 16.960938 -8.203125 19.140625 -8.203125 C 21.316406 -8.203125 22.984375 -8.816406 24.140625 -10.046875 C 25.296875 -11.285156 25.875 -13.046875 25.875 -15.328125 L 25.875 -38.171875 L 35.1875 -38.171875 L 35.1875 -15.390625 C 35.1875 -11.984375 34.457031 -9.097656 33 -6.734375 C 31.550781 -4.378906 29.601562 -2.601562 27.15625 -1.40625 C 24.707031 -0.21875 21.984375 0.375 18.984375 0.375 C 15.972656 0.375 13.28125 -0.210938 10.90625 -1.390625 C 8.53125 -2.566406 6.648438 -4.34375 5.265625 -6.71875 C 3.890625 -9.09375 3.203125 -11.984375 3.203125 -15.390625 L 3.203125 -38.171875 Z M 12.5 -38.171875 "/></g></g></g><g fill="#05b9d8" fill-opacity="1"><g transform="translate(854.568114, 578.558476)"><g><path d="M 17.1875 0.375 C 14.394531 0.375 11.890625 -0.078125 9.671875 -0.984375 C 7.460938 -1.890625 5.695312 -3.226562 4.375 -5 C 3.050781 -6.78125 2.351562 -8.921875 2.28125 -11.421875 L 12.1875 -11.421875 C 12.320312 -10.003906 12.804688 -8.921875 13.640625 -8.171875 C 14.484375 -7.429688 15.570312 -7.0625 16.90625 -7.0625 C 18.289062 -7.0625 19.378906 -7.378906 20.171875 -8.015625 C 20.972656 -8.648438 21.375 -9.53125 21.375 -10.65625 C 21.375 -11.601562 21.054688 -12.382812 20.421875 -13 C 19.785156 -13.613281 19.003906 -14.117188 18.078125 -14.515625 C 17.148438 -14.910156 15.835938 -15.363281 14.140625 -15.875 C 11.671875 -16.632812 9.65625 -17.394531 8.09375 -18.15625 C 6.539062 -18.914062 5.203125 -20.039062 4.078125 -21.53125 C 2.953125 -23.019531 2.390625 -24.957031 2.390625 -27.34375 C 2.390625 -30.894531 3.675781 -33.675781 6.25 -35.6875 C 8.820312 -37.707031 12.175781 -38.71875 16.3125 -38.71875 C 20.519531 -38.71875 23.910156 -37.707031 26.484375 -35.6875 C 29.054688 -33.675781 30.429688 -30.878906 30.609375 -27.296875 L 20.546875 -27.296875 C 20.472656 -28.523438 20.019531 -29.492188 19.1875 -30.203125 C 18.351562 -30.910156 17.285156 -31.265625 15.984375 -31.265625 C 14.859375 -31.265625 13.953125 -30.960938 13.265625 -30.359375 C 12.578125 -29.765625 12.234375 -28.90625 12.234375 -27.78125 C 12.234375 -26.550781 12.8125 -25.59375 13.96875 -24.90625 C 15.132812 -24.21875 16.945312 -23.472656 19.40625 -22.671875 C 21.875 -21.835938 23.878906 -21.039062 25.421875 -20.28125 C 26.960938 -19.519531 28.296875 -18.414062 29.421875 -16.96875 C 30.546875 -15.519531 31.109375 -13.648438 31.109375 -11.359375 C 31.109375 -9.191406 30.550781 -7.21875 29.4375 -5.4375 C 28.332031 -3.65625 26.726562 -2.238281 24.625 -1.1875 C 22.53125 -0.144531 20.050781 0.375 17.1875 0.375 Z M 17.1875 0.375 "/></g></g></g><g fill="#05b9d8" fill-opacity="1"><g transform="translate(889.096272, 578.558476)"><g><path d="M 30.828125 -38.171875 L 30.828125 -30.71875 L 20.71875 -30.71875 L 20.71875 0 L 11.421875 0 L 11.421875 -30.71875 L 1.3125 -30.71875 L 1.3125 -38.171875 Z M 30.828125 -38.171875 "/></g></g></g><g fill="#05b9d8" fill-opacity="1"><g transform="translate(922.319433, 578.558476)"><g><path d="M 21.421875 0.375 C 17.835938 0.375 14.546875 -0.457031 11.546875 -2.125 C 8.554688 -3.789062 6.179688 -6.117188 4.421875 -9.109375 C 2.671875 -12.097656 1.796875 -15.457031 1.796875 -19.1875 C 1.796875 -22.925781 2.671875 -26.28125 4.421875 -29.25 C 6.179688 -32.226562 8.554688 -34.550781 11.546875 -36.21875 C 14.546875 -37.882812 17.835938 -38.71875 21.421875 -38.71875 C 25.015625 -38.71875 28.304688 -37.882812 31.296875 -36.21875 C 34.285156 -34.550781 36.640625 -32.226562 38.359375 -29.25 C 40.078125 -26.28125 40.9375 -22.925781 40.9375 -19.1875 C 40.9375 -15.457031 40.066406 -12.097656 38.328125 -9.109375 C 36.585938 -6.117188 34.234375 -3.789062 31.265625 -2.125 C 28.296875 -0.457031 25.015625 0.375 21.421875 0.375 Z M 21.421875 -8.109375 C 24.460938 -8.109375 26.898438 -9.117188 28.734375 -11.140625 C 30.566406 -13.171875 31.484375 -15.851562 31.484375 -19.1875 C 31.484375 -22.5625 30.566406 -25.253906 28.734375 -27.265625 C 26.898438 -29.273438 24.460938 -30.28125 21.421875 -30.28125 C 18.335938 -30.28125 15.878906 -29.285156 14.046875 -27.296875 C 12.222656 -25.304688 11.3125 -22.601562 11.3125 -19.1875 C 11.3125 -15.820312 12.222656 -13.132812 14.046875 -11.125 C 15.878906 -9.113281 18.335938 -8.109375 21.421875 -8.109375 Z M 21.421875 -8.109375 "/></g></g></g><g fill="#05b9d8" fill-opacity="1"><g transform="translate(966.145679, 578.558476)"><g><path d="M 46.59375 -38.171875 L 46.59375 0 L 37.296875 0 L 37.296875 -22.890625 L 28.765625 0 L 21.265625 0 L 12.671875 -22.953125 L 12.671875 0 L 3.375 0 L 3.375 -38.171875 L 14.359375 -38.171875 L 25.0625 -11.75 L 35.671875 -38.171875 Z M 46.59375 -38.171875 "/></g></g></g><g fill="#05b9d8" fill-opacity="1"><g transform="translate(1017.149414, 578.558476)"><g><path d="M 12.671875 -30.71875 L 12.671875 -23 L 25.125 -23 L 25.125 -15.828125 L 12.671875 -15.828125 L 12.671875 -7.453125 L 26.75 -7.453125 L 26.75 0 L 3.375 0 L 3.375 -38.171875 L 26.75 -38.171875 L 26.75 -30.71875 Z M 12.671875 -30.71875 "/></g></g></g><g fill="#05b9d8" fill-opacity="1"><g transform="translate(1047.65383, 578.558476)"><g><path d="M 22.84375 0 L 14.90625 -14.40625 L 12.671875 -14.40625 L 12.671875 0 L 3.375 0 L 3.375 -38.171875 L 18.984375 -38.171875 C 21.984375 -38.171875 24.546875 -37.644531 26.671875 -36.59375 C 28.796875 -35.539062 30.378906 -34.097656 31.421875 -32.265625 C 32.472656 -30.441406 33 -28.40625 33 -26.15625 C 33 -23.613281 32.28125 -21.34375 30.84375 -19.34375 C 29.414062 -17.351562 27.304688 -15.941406 24.515625 -15.109375 L 33.328125 0 Z M 12.671875 -20.984375 L 18.4375 -20.984375 C 20.132812 -20.984375 21.410156 -21.398438 22.265625 -22.234375 C 23.117188 -23.066406 23.546875 -24.25 23.546875 -25.78125 C 23.546875 -27.226562 23.117188 -28.367188 22.265625 -29.203125 C 21.410156 -30.035156 20.132812 -30.453125 18.4375 -30.453125 L 12.671875 -30.453125 Z M 12.671875 -20.984375 "/></g></g></g><g fill="#05b9d8" fill-opacity="1"><g transform="translate(1084.193854, 578.558476)"><g/></g></g><g fill="#05b9d8" fill-opacity="1"><g transform="translate(1096.808945, 578.558476)"><g><path d="M 39.203125 -38.171875 L 25.671875 0 L 14.03125 0 L 0.484375 -38.171875 L 10.390625 -38.171875 L 19.84375 -9.359375 L 29.359375 -38.171875 Z M 39.203125 -38.171875 "/></g></g></g><g fill="#05b9d8" fill-opacity="1"><g transform="translate(1137.590204, 578.558476)"><g><path d="M 12.671875 -38.171875 L 12.671875 0 L 3.375 0 L 3.375 -38.171875 Z M 12.671875 -38.171875 "/></g></g></g><g fill="#05b9d8" fill-opacity="1"><g transform="translate(1154.718395, 578.558476)"><g><path d="M 12.671875 -30.71875 L 12.671875 -23 L 25.125 -23 L 25.125 -15.828125 L 12.671875 -15.828125 L 12.671875 -7.453125 L 26.75 -7.453125 L 26.75 0 L 3.375 0 L 3.375 -38.171875 L 26.75 -38.171875 L 26.75 -30.71875 Z M 12.671875 -30.71875 "/></g></g></g><g fill="#05b9d8" fill-opacity="1"><g transform="translate(1185.222811, 578.558476)"><g><path d="M 55.890625 -38.171875 L 45.953125 0 L 34.6875 0 L 28.59375 -25.125 L 22.296875 0 L 11.03125 0 L 1.359375 -38.171875 L 11.3125 -38.171875 L 16.796875 -10.390625 L 23.59375 -38.171875 L 33.828125 -38.171875 L 40.34375 -10.390625 L 45.890625 -38.171875 Z M 55.890625 -38.171875 "/></g></g></g></svg>