<svg xmlns="http://www.w3.org/2000/svg" xmlns:xlink="http://www.w3.org/1999/xlink" width="1920" zoomAndPan="magnify" viewBox="0 0 1440 809.999993" height="1080" preserveAspectRatio="xMidYMid meet" version="1.0"><defs><g/><clipPath id="596148d25b"><path d="M 1111 237.4375 L 1226 237.4375 L 1226 352 L 1111 352 Z M 1111 237.4375 " clip-rule="nonzero"/></clipPath><clipPath id="564f6fe452"><path d="M 1077.441406 347.105469 L 1259.65625 347.105469 L 1259.65625 440.6875 L 1077.441406 440.6875 Z M 1077.441406 347.105469 " clip-rule="nonzero"/></clipPath><clipPath id="8b6e1263c2"><path d="M 629 237.4375 L 744 237.4375 L 744 352 L 629 352 Z M 629 237.4375 " clip-rule="nonzero"/></clipPath><clipPath id="665f2ea3e5"><path d="M 595.019531 348 L 777.46875 348 L 777.46875 440.6875 L 595.019531 440.6875 Z M 595.019531 348 " clip-rule="nonzero"/></clipPath><clipPath id="cfd2e9fbb3"><path d="M 164 237.4375 L 279 237.4375 L 279 352 L 164 352 Z M 164 237.4375 " clip-rule="nonzero"/></clipPath><clipPath id="98ad6ca681"><path d="M 130.214844 348 L 312.660156 348 L 312.660156 440.6875 L 130.214844 440.6875 Z M 130.214844 348 " clip-rule="nonzero"/></clipPath><clipPath id="0553fe1f51"><path d="M 268.714844 193.058594 L 357.214844 193.058594 L 357.214844 281.554688 L 268.714844 281.554688 Z M 268.714844 193.058594 " clip-rule="nonzero"/></clipPath></defs><rect x="-144" width="1728" fill="#ffffff" y="-80.999999" height="971.999992" fill-opacity="1"/><rect x="-144" width="1728" fill="#06203d" y="-80.999999" height="971.999992" fill-opacity="1"/><g clip-path="url(#596148d25b)"><path fill="#05b9d8" d="M 1225.679688 294.550781 C 1225.679688 326.089844 1200.101562 351.65625 1168.546875 351.65625 C 1136.996094 351.65625 1111.414062 326.089844 1111.414062 294.550781 C 1111.414062 263.007812 1136.996094 237.445312 1168.546875 237.445312 C 1200.101562 237.445312 1225.679688 263.007812 1225.679688 294.550781 " fill-opacity="1" fill-rule="nonzero"/></g><g clip-path="url(#564f6fe452)"><path fill="#05b9d8" d="M 1168.546875 440.714844 C 1204.117188 440.714844 1236.320312 434.351562 1259.65625 411.082031 C 1259.65625 381.78125 1232.121094 359.324219 1205.523438 347.949219 C 1196 357.300781 1182.953125 363.070312 1168.546875 363.070312 C 1154.148438 363.070312 1141.09375 357.300781 1131.574219 347.949219 C 1104.972656 359.324219 1077.441406 380.507812 1077.441406 411.082031 C 1100.773438 434.351562 1132.980469 440.714844 1168.546875 440.714844 " fill-opacity="1" fill-rule="nonzero"/></g><g clip-path="url(#8b6e1263c2)"><path fill="#ffffff" d="M 743.449219 294.648438 C 743.449219 326.246094 717.835938 351.855469 686.242188 351.855469 C 654.652344 351.855469 629.035156 326.246094 629.035156 294.648438 C 629.035156 263.054688 654.652344 237.445312 686.242188 237.445312 C 717.835938 237.445312 743.449219 263.054688 743.449219 294.648438 " fill-opacity="1" fill-rule="nonzero"/></g><g clip-path="url(#665f2ea3e5)"><path fill="#ffffff" d="M 686.242188 441.066406 C 721.859375 441.066406 754.101562 434.695312 777.46875 411.382812 C 777.46875 382.03125 749.894531 359.535156 723.265625 348.140625 C 713.730469 357.507812 700.667969 363.285156 686.242188 363.285156 C 671.824219 363.285156 658.753906 357.507812 649.222656 348.140625 C 622.589844 359.535156 595.019531 380.753906 595.019531 411.382812 C 618.382812 434.695312 650.628906 441.066406 686.242188 441.066406 " fill-opacity="1" fill-rule="nonzero"/></g><g clip-path="url(#cfd2e9fbb3)"><path fill="#b2afaf" d="M 278.640625 294.648438 C 278.640625 326.246094 253.03125 351.855469 221.433594 351.855469 C 189.84375 351.855469 164.230469 326.246094 164.230469 294.648438 C 164.230469 263.054688 189.84375 237.445312 221.433594 237.445312 C 253.03125 237.445312 278.640625 263.054688 278.640625 294.648438 " fill-opacity="1" fill-rule="nonzero"/></g><g clip-path="url(#98ad6ca681)"><path fill="#b2afaf" d="M 221.433594 441.066406 C 257.050781 441.066406 289.292969 434.695312 312.660156 411.382812 C 312.660156 382.03125 285.089844 359.535156 258.460938 348.140625 C 248.921875 357.507812 235.859375 363.285156 221.433594 363.285156 C 207.015625 363.285156 193.945312 357.507812 184.414062 348.140625 C 157.78125 359.535156 130.214844 380.753906 130.214844 411.382812 C 153.574219 434.695312 185.824219 441.066406 221.433594 441.066406 " fill-opacity="1" fill-rule="nonzero"/></g><g clip-path="url(#0553fe1f51)"><path fill="#b2afaf" d="M 312.785156 220.558594 C 322.011719 220.382812 329.625 227.726562 329.796875 236.953125 C 329.796875 237.121094 329.796875 237.277344 329.796875 237.445312 C 329.902344 246.671875 322.507812 254.234375 313.28125 254.335938 C 304.054688 254.441406 296.492188 247.050781 296.386719 237.820312 C 296.386719 237.695312 296.386719 237.570312 296.386719 237.445312 C 296.285156 228.261719 303.605469 220.722656 312.785156 220.558594 Z M 314.574219 193.097656 C 312.085938 193.007812 309.585938 193.136719 307.121094 193.464844 C 306.246094 193.585938 305.527344 194.199219 305.269531 195.035156 L 302.808594 203.039062 C 302.597656 203.71875 302.078125 204.261719 301.40625 204.5 C 300.25 204.914062 299.113281 205.378906 298.003906 205.910156 C 297.355469 206.222656 296.601562 206.207031 295.96875 205.871094 L 288.578125 201.945312 C 287.800781 201.535156 286.851562 201.613281 286.160156 202.148438 C 282.992188 204.554688 280.171875 207.382812 277.761719 210.542969 C 277.222656 211.242188 277.144531 212.179688 277.554688 212.960938 L 281.488281 220.359375 C 281.824219 220.984375 281.859375 221.738281 281.566406 222.386719 C 281.03125 223.496094 280.558594 224.632812 280.148438 225.789062 C 279.910156 226.46875 279.367188 226.988281 278.683594 227.191406 L 270.683594 229.660156 C 269.839844 229.910156 269.226562 230.636719 269.117188 231.503906 C 268.582031 235.449219 268.582031 239.4375 269.117188 243.386719 C 269.226562 244.25 269.839844 244.976562 270.683594 245.230469 L 278.683594 247.695312 C 279.367188 247.898438 279.910156 248.421875 280.148438 249.097656 C 280.558594 250.257812 281.03125 251.390625 281.566406 252.5 C 281.859375 253.148438 281.824219 253.902344 281.488281 254.527344 L 277.554688 261.925781 C 277.144531 262.699219 277.222656 263.644531 277.761719 264.34375 C 280.171875 267.503906 282.992188 270.324219 286.160156 272.738281 C 286.851562 273.273438 287.800781 273.34375 288.578125 272.941406 L 295.96875 269.019531 C 296.601562 268.679688 297.355469 268.664062 298.003906 268.96875 C 299.113281 269.5 300.25 269.972656 301.40625 270.382812 C 302.078125 270.617188 302.597656 271.160156 302.808594 271.839844 L 305.269531 279.84375 C 305.527344 280.6875 306.246094 281.300781 307.121094 281.414062 C 311.058594 281.949219 315.054688 281.949219 318.996094 281.414062 C 319.863281 281.300781 320.585938 280.6875 320.847656 279.84375 L 323.304688 271.839844 C 323.519531 271.160156 324.039062 270.617188 324.707031 270.382812 C 325.867188 269.972656 327.007812 269.5 328.113281 268.96875 C 328.757812 268.664062 329.507812 268.679688 330.136719 269.019531 L 337.535156 272.941406 C 338.316406 273.34375 339.261719 273.273438 339.957031 272.738281 C 343.121094 270.324219 345.945312 267.503906 348.355469 264.34375 C 348.890625 263.644531 348.96875 262.699219 348.558594 261.925781 L 344.636719 254.527344 C 344.289062 253.902344 344.265625 253.148438 344.558594 252.5 C 345.085938 251.390625 345.558594 250.257812 345.96875 249.097656 C 346.203125 248.421875 346.746094 247.898438 347.433594 247.695312 L 355.4375 245.230469 C 356.273438 244.96875 356.890625 244.25 357.007812 243.386719 C 357.535156 239.4375 357.535156 235.449219 357.007812 231.503906 C 356.890625 230.636719 356.273438 229.910156 355.4375 229.660156 L 347.433594 227.191406 C 346.746094 226.988281 346.203125 226.46875 345.96875 225.789062 C 345.558594 224.632812 345.085938 223.496094 344.558594 222.386719 C 344.265625 221.738281 344.289062 220.984375 344.636719 220.359375 L 348.558594 212.960938 C 348.96875 212.179688 348.890625 211.242188 348.355469 210.542969 C 345.945312 207.382812 343.121094 204.554688 339.957031 202.148438 C 339.261719 201.613281 338.316406 201.535156 337.535156 201.945312 L 330.136719 205.871094 C 329.507812 206.207031 328.757812 206.222656 328.113281 205.917969 C 327.007812 205.386719 325.867188 204.914062 324.707031 204.507812 C 324.039062 204.269531 323.519531 203.726562 323.304688 203.039062 L 320.847656 195.042969 C 320.585938 194.199219 319.863281 193.585938 318.996094 193.464844 C 317.53125 193.269531 316.054688 193.144531 314.574219 193.097656 " fill-opacity="1" fill-rule="nonzero"/></g><g fill="#ffffff" fill-opacity="1"><g transform="translate(581.209101, 520.298394)"><g><path d="M 9.921875 -29.875 L 9.921875 0 L 2.640625 0 L 2.640625 -29.875 Z M 9.921875 -29.875 "/></g></g></g><g fill="#ffffff" fill-opacity="1"><g transform="translate(594.616484, 520.298394)"><g><path d="M 29.375 0 L 22.09375 0 L 9.921875 -18.421875 L 9.921875 0 L 2.640625 0 L 2.640625 -29.875 L 9.921875 -29.875 L 22.09375 -11.359375 L 22.09375 -29.875 L 29.375 -29.875 Z M 29.375 0 "/></g></g></g><g fill="#ffffff" fill-opacity="1"><g transform="translate(627.474941, 520.298394)"><g><path d="M 24.140625 -29.875 L 24.140625 -24.046875 L 16.21875 -24.046875 L 16.21875 0 L 8.9375 0 L 8.9375 -24.046875 L 1.015625 -24.046875 L 1.015625 -29.875 Z M 24.140625 -29.875 "/></g></g></g><g fill="#ffffff" fill-opacity="1"><g transform="translate(653.480838, 520.298394)"><g><path d="M 9.921875 -24.046875 L 9.921875 -18 L 19.65625 -18 L 19.65625 -12.390625 L 9.921875 -12.390625 L 9.921875 -5.828125 L 20.9375 -5.828125 L 20.9375 0 L 2.640625 0 L 2.640625 -29.875 L 20.9375 -29.875 L 20.9375 -24.046875 Z M 9.921875 -24.046875 "/></g></g></g><g fill="#ffffff" fill-opacity="1"><g transform="translate(677.358602, 520.298394)"><g><path d="M 17.875 0 L 11.65625 -11.28125 L 9.921875 -11.28125 L 9.921875 0 L 2.640625 0 L 2.640625 -29.875 L 14.859375 -29.875 C 17.210938 -29.875 19.21875 -29.460938 20.875 -28.640625 C 22.53125 -27.816406 23.769531 -26.6875 24.59375 -25.25 C 25.414062 -23.820312 25.828125 -22.226562 25.828125 -20.46875 C 25.828125 -18.488281 25.265625 -16.71875 24.140625 -15.15625 C 23.023438 -13.59375 21.378906 -12.484375 19.203125 -11.828125 L 26.09375 0 Z M 9.921875 -16.421875 L 14.421875 -16.421875 C 15.753906 -16.421875 16.753906 -16.75 17.421875 -17.40625 C 18.085938 -18.0625 18.421875 -18.984375 18.421875 -20.171875 C 18.421875 -21.304688 18.085938 -22.195312 17.421875 -22.84375 C 16.753906 -23.5 15.753906 -23.828125 14.421875 -23.828125 L 9.921875 -23.828125 Z M 9.921875 -16.421875 "/></g></g></g><g fill="#ffffff" fill-opacity="1"><g transform="translate(705.960808, 520.298394)"><g><path d="M 29.375 0 L 22.09375 0 L 9.921875 -18.421875 L 9.921875 0 L 2.640625 0 L 2.640625 -29.875 L 9.921875 -29.875 L 22.09375 -11.359375 L 22.09375 -29.875 L 29.375 -29.875 Z M 29.375 0 "/></g></g></g><g fill="#ffffff" fill-opacity="1"><g transform="translate(738.819265, 520.298394)"><g><path d="M 21.234375 -5.28125 L 10.09375 -5.28125 L 8.296875 0 L 0.6875 0 L 11.484375 -29.875 L 19.921875 -29.875 L 30.734375 0 L 23.03125 0 Z M 19.359375 -10.890625 L 15.65625 -21.828125 L 12 -10.890625 Z M 19.359375 -10.890625 "/></g></g></g><g fill="#ffffff" fill-opacity="1"><g transform="translate(771.039291, 520.298394)"><g><path d="M 9.921875 -5.625 L 19.453125 -5.625 L 19.453125 0 L 2.640625 0 L 2.640625 -29.875 L 9.921875 -29.875 Z M 9.921875 -5.625 "/></g></g></g><g fill="#ffffff" fill-opacity="1"><g transform="translate(512.420042, 571.298391)"><g><path d="M 9.921875 -24.046875 L 9.921875 -18 L 19.65625 -18 L 19.65625 -12.390625 L 9.921875 -12.390625 L 9.921875 -5.828125 L 20.9375 -5.828125 L 20.9375 0 L 2.640625 0 L 2.640625 -29.875 L 20.9375 -29.875 L 20.9375 -24.046875 Z M 9.921875 -24.046875 "/></g></g></g><g fill="#ffffff" fill-opacity="1"><g transform="translate(536.297807, 571.298391)"><g><path d="M 36.46875 -29.875 L 36.46875 0 L 29.203125 0 L 29.203125 -17.921875 L 22.515625 0 L 16.640625 0 L 9.921875 -17.96875 L 9.921875 0 L 2.640625 0 L 2.640625 -29.875 L 11.234375 -29.875 L 19.625 -9.1875 L 27.921875 -29.875 Z M 36.46875 -29.875 "/></g></g></g><g fill="#ffffff" fill-opacity="1"><g transform="translate(576.221652, 571.298391)"><g><path d="M 25.40625 -20.265625 C 25.40625 -18.523438 25.007812 -16.9375 24.21875 -15.5 C 23.425781 -14.070312 22.207031 -12.914062 20.5625 -12.03125 C 18.914062 -11.15625 16.867188 -10.71875 14.421875 -10.71875 L 9.921875 -10.71875 L 9.921875 0 L 2.640625 0 L 2.640625 -29.875 L 14.421875 -29.875 C 16.804688 -29.875 18.820312 -29.460938 20.46875 -28.640625 C 22.113281 -27.816406 23.347656 -26.679688 24.171875 -25.234375 C 24.992188 -23.785156 25.40625 -22.128906 25.40625 -20.265625 Z M 13.875 -16.515625 C 15.257812 -16.515625 16.289062 -16.835938 16.96875 -17.484375 C 17.65625 -18.140625 18 -19.066406 18 -20.265625 C 18 -21.453125 17.65625 -22.367188 16.96875 -23.015625 C 16.289062 -23.671875 15.257812 -24 13.875 -24 L 9.921875 -24 L 9.921875 -16.515625 Z M 13.875 -16.515625 "/></g></g></g><g fill="#ffffff" fill-opacity="1"><g transform="translate(603.632104, 571.298391)"><g><path d="M 9.921875 -5.625 L 19.453125 -5.625 L 19.453125 0 L 2.640625 0 L 2.640625 -29.875 L 9.921875 -29.875 Z M 9.921875 -5.625 "/></g></g></g><g fill="#ffffff" fill-opacity="1"><g transform="translate(624.785866, 571.298391)"><g><path d="M 16.765625 0.296875 C 13.960938 0.296875 11.390625 -0.351562 9.046875 -1.65625 C 6.703125 -2.96875 4.84375 -4.789062 3.46875 -7.125 C 2.09375 -9.46875 1.40625 -12.101562 1.40625 -15.03125 C 1.40625 -17.945312 2.09375 -20.566406 3.46875 -22.890625 C 4.84375 -25.222656 6.703125 -27.039062 9.046875 -28.34375 C 11.390625 -29.644531 13.960938 -30.296875 16.765625 -30.296875 C 19.578125 -30.296875 22.148438 -29.644531 24.484375 -28.34375 C 26.828125 -27.039062 28.671875 -25.222656 30.015625 -22.890625 C 31.367188 -20.566406 32.046875 -17.945312 32.046875 -15.03125 C 32.046875 -12.101562 31.363281 -9.46875 30 -7.125 C 28.644531 -4.789062 26.800781 -2.96875 24.46875 -1.65625 C 22.144531 -0.351562 19.578125 0.296875 16.765625 0.296875 Z M 16.765625 -6.34375 C 19.148438 -6.34375 21.054688 -7.132812 22.484375 -8.71875 C 23.921875 -10.3125 24.640625 -12.414062 24.640625 -15.03125 C 24.640625 -17.664062 23.921875 -19.769531 22.484375 -21.34375 C 21.054688 -22.914062 19.148438 -23.703125 16.765625 -23.703125 C 14.359375 -23.703125 12.4375 -22.921875 11 -21.359375 C 9.570312 -19.804688 8.859375 -17.695312 8.859375 -15.03125 C 8.859375 -12.382812 9.570312 -10.273438 11 -8.703125 C 12.4375 -7.128906 14.359375 -6.34375 16.765625 -6.34375 Z M 16.765625 -6.34375 "/></g></g></g><g fill="#ffffff" fill-opacity="1"><g transform="translate(659.091452, 571.298391)"><g><path d="M 28.265625 -29.875 L 17.921875 -9.875 L 17.921875 0 L 10.640625 0 L 10.640625 -9.875 L 0.296875 -29.875 L 8.5625 -29.875 L 14.34375 -17.359375 L 20.09375 -29.875 Z M 28.265625 -29.875 "/></g></g></g><g fill="#ffffff" fill-opacity="1"><g transform="translate(688.502343, 571.298391)"><g><path d="M 9.921875 -24.046875 L 9.921875 -18 L 19.65625 -18 L 19.65625 -12.390625 L 9.921875 -12.390625 L 9.921875 -5.828125 L 20.9375 -5.828125 L 20.9375 0 L 2.640625 0 L 2.640625 -29.875 L 20.9375 -29.875 L 20.9375 -24.046875 Z M 9.921875 -24.046875 "/></g></g></g><g fill="#ffffff" fill-opacity="1"><g transform="translate(712.380108, 571.298391)"><g><path d="M 9.921875 -24.046875 L 9.921875 -18 L 19.65625 -18 L 19.65625 -12.390625 L 9.921875 -12.390625 L 9.921875 -5.828125 L 20.9375 -5.828125 L 20.9375 0 L 2.640625 0 L 2.640625 -29.875 L 20.9375 -29.875 L 20.9375 -24.046875 Z M 9.921875 -24.046875 "/></g></g></g><g fill="#ffffff" fill-opacity="1"><g transform="translate(736.257861, 571.298391)"><g/></g></g><g fill="#ffffff" fill-opacity="1"><g transform="translate(746.132532, 571.298391)"><g><path d="M 30.6875 -29.875 L 20.09375 0 L 10.984375 0 L 0.390625 -29.875 L 8.125 -29.875 L 15.53125 -7.328125 L 22.984375 -29.875 Z M 30.6875 -29.875 "/></g></g></g><g fill="#ffffff" fill-opacity="1"><g transform="translate(778.054612, 571.298391)"><g><path d="M 9.921875 -29.875 L 9.921875 0 L 2.640625 0 L 2.640625 -29.875 Z M 9.921875 -29.875 "/></g></g></g><g fill="#ffffff" fill-opacity="1"><g transform="translate(791.462006, 571.298391)"><g><path d="M 9.921875 -24.046875 L 9.921875 -18 L 19.65625 -18 L 19.65625 -12.390625 L 9.921875 -12.390625 L 9.921875 -5.828125 L 20.9375 -5.828125 L 20.9375 0 L 2.640625 0 L 2.640625 -29.875 L 20.9375 -29.875 L 20.9375 -24.046875 Z M 9.921875 -24.046875 "/></g></g></g><g fill="#ffffff" fill-opacity="1"><g transform="translate(815.339782, 571.298391)"><g><path d="M 43.75 -29.875 L 35.96875 0 L 27.15625 0 L 22.390625 -19.65625 L 17.453125 0 L 8.640625 0 L 1.0625 -29.875 L 8.859375 -29.875 L 13.15625 -8.125 L 18.46875 -29.875 L 26.46875 -29.875 L 31.578125 -8.125 L 35.921875 -29.875 Z M 43.75 -29.875 "/></g></g></g><g fill="#05b9d8" fill-opacity="1"><g transform="translate(1059.177493, 520.298394)"><g><path d="M 9.921875 -24.046875 L 9.921875 -18 L 19.65625 -18 L 19.65625 -12.390625 L 9.921875 -12.390625 L 9.921875 -5.828125 L 20.9375 -5.828125 L 20.9375 0 L 2.640625 0 L 2.640625 -29.875 L 20.9375 -29.875 L 20.9375 -24.046875 Z M 9.921875 -24.046875 "/></g></g></g><g fill="#05b9d8" fill-opacity="1"><g transform="translate(1083.055257, 520.298394)"><g><path d="M 20.9375 0 L 14.859375 -9.15625 L 9.484375 0 L 1.234375 0 L 10.8125 -15.1875 L 1.015625 -29.875 L 9.484375 -29.875 L 15.5 -20.859375 L 20.765625 -29.875 L 29.03125 -29.875 L 19.53125 -14.8125 L 29.40625 0 Z M 20.9375 0 "/></g></g></g><g fill="#05b9d8" fill-opacity="1"><g transform="translate(1114.338906, 520.298394)"><g><path d="M 24.140625 -29.875 L 24.140625 -24.046875 L 16.21875 -24.046875 L 16.21875 0 L 8.9375 0 L 8.9375 -24.046875 L 1.015625 -24.046875 L 1.015625 -29.875 Z M 24.140625 -29.875 "/></g></g></g><g fill="#05b9d8" fill-opacity="1"><g transform="translate(1140.344802, 520.298394)"><g><path d="M 9.921875 -24.046875 L 9.921875 -18 L 19.65625 -18 L 19.65625 -12.390625 L 9.921875 -12.390625 L 9.921875 -5.828125 L 20.9375 -5.828125 L 20.9375 0 L 2.640625 0 L 2.640625 -29.875 L 20.9375 -29.875 L 20.9375 -24.046875 Z M 9.921875 -24.046875 "/></g></g></g><g fill="#05b9d8" fill-opacity="1"><g transform="translate(1164.222566, 520.298394)"><g><path d="M 17.875 0 L 11.65625 -11.28125 L 9.921875 -11.28125 L 9.921875 0 L 2.640625 0 L 2.640625 -29.875 L 14.859375 -29.875 C 17.210938 -29.875 19.21875 -29.460938 20.875 -28.640625 C 22.53125 -27.816406 23.769531 -26.6875 24.59375 -25.25 C 25.414062 -23.820312 25.828125 -22.226562 25.828125 -20.46875 C 25.828125 -18.488281 25.265625 -16.71875 24.140625 -15.15625 C 23.023438 -13.59375 21.378906 -12.484375 19.203125 -11.828125 L 26.09375 0 Z M 9.921875 -16.421875 L 14.421875 -16.421875 C 15.753906 -16.421875 16.753906 -16.75 17.421875 -17.40625 C 18.085938 -18.0625 18.421875 -18.984375 18.421875 -20.171875 C 18.421875 -21.304688 18.085938 -22.195312 17.421875 -22.84375 C 16.753906 -23.5 15.753906 -23.828125 14.421875 -23.828125 L 9.921875 -23.828125 Z M 9.921875 -16.421875 "/></g></g></g><g fill="#05b9d8" fill-opacity="1"><g transform="translate(1192.824772, 520.298394)"><g><path d="M 29.375 0 L 22.09375 0 L 9.921875 -18.421875 L 9.921875 0 L 2.640625 0 L 2.640625 -29.875 L 9.921875 -29.875 L 22.09375 -11.359375 L 22.09375 -29.875 L 29.375 -29.875 Z M 29.375 0 "/></g></g></g><g fill="#05b9d8" fill-opacity="1"><g transform="translate(1225.68323, 520.298394)"><g><path d="M 21.234375 -5.28125 L 10.09375 -5.28125 L 8.296875 0 L 0.6875 0 L 11.484375 -29.875 L 19.921875 -29.875 L 30.734375 0 L 23.03125 0 Z M 19.359375 -10.890625 L 15.65625 -21.828125 L 12 -10.890625 Z M 19.359375 -10.890625 "/></g></g></g><g fill="#05b9d8" fill-opacity="1"><g transform="translate(1257.903267, 520.298394)"><g><path d="M 9.921875 -5.625 L 19.453125 -5.625 L 19.453125 0 L 2.640625 0 L 2.640625 -29.875 L 9.921875 -29.875 Z M 9.921875 -5.625 "/></g></g></g><g fill="#05b9d8" fill-opacity="1"><g transform="translate(984.822028, 571.298391)"><g><path d="M 1.40625 -14.984375 C 1.40625 -17.929688 2.039062 -20.5625 3.3125 -22.875 C 4.59375 -25.1875 6.375 -26.988281 8.65625 -28.28125 C 10.945312 -29.570312 13.535156 -30.21875 16.421875 -30.21875 C 19.972656 -30.21875 23.007812 -29.28125 25.53125 -27.40625 C 28.0625 -25.53125 29.753906 -22.976562 30.609375 -19.75 L 22.59375 -19.75 C 22 -21 21.15625 -21.945312 20.0625 -22.59375 C 18.96875 -23.25 17.726562 -23.578125 16.34375 -23.578125 C 14.101562 -23.578125 12.285156 -22.796875 10.890625 -21.234375 C 9.503906 -19.671875 8.8125 -17.585938 8.8125 -14.984375 C 8.8125 -12.367188 9.503906 -10.28125 10.890625 -8.71875 C 12.285156 -7.164062 14.101562 -6.390625 16.34375 -6.390625 C 17.726562 -6.390625 18.96875 -6.710938 20.0625 -7.359375 C 21.15625 -8.015625 22 -8.96875 22.59375 -10.21875 L 30.609375 -10.21875 C 29.753906 -6.976562 28.0625 -4.425781 25.53125 -2.5625 C 23.007812 -0.707031 19.972656 0.21875 16.421875 0.21875 C 13.535156 0.21875 10.945312 -0.425781 8.65625 -1.71875 C 6.375 -3.007812 4.59375 -4.804688 3.3125 -7.109375 C 2.039062 -9.410156 1.40625 -12.035156 1.40625 -14.984375 Z M 1.40625 -14.984375 "/></g></g></g><g fill="#05b9d8" fill-opacity="1"><g transform="translate(1018.106114, 571.298391)"><g><path d="M 9.796875 -29.875 L 9.796875 -12 C 9.796875 -10.21875 10.234375 -8.84375 11.109375 -7.875 C 11.984375 -6.90625 13.273438 -6.421875 14.984375 -6.421875 C 16.679688 -6.421875 17.984375 -6.90625 18.890625 -7.875 C 19.804688 -8.84375 20.265625 -10.21875 20.265625 -12 L 20.265625 -29.875 L 27.53125 -29.875 L 27.53125 -12.046875 C 27.53125 -9.378906 26.960938 -7.125 25.828125 -5.28125 C 24.703125 -3.4375 23.179688 -2.046875 21.265625 -1.109375 C 19.347656 -0.171875 17.210938 0.296875 14.859375 0.296875 C 12.503906 0.296875 10.394531 -0.160156 8.53125 -1.078125 C 6.675781 -2.003906 5.207031 -3.394531 4.125 -5.25 C 3.050781 -7.113281 2.515625 -9.378906 2.515625 -12.046875 L 2.515625 -29.875 Z M 9.796875 -29.875 "/></g></g></g><g fill="#05b9d8" fill-opacity="1"><g transform="translate(1048.964134, 571.298391)"><g><path d="M 13.453125 0.296875 C 11.265625 0.296875 9.304688 -0.0546875 7.578125 -0.765625 C 5.847656 -1.472656 4.460938 -2.519531 3.421875 -3.90625 C 2.390625 -5.300781 1.84375 -6.976562 1.78125 -8.9375 L 9.53125 -8.9375 C 9.644531 -7.832031 10.023438 -6.988281 10.671875 -6.40625 C 11.328125 -5.820312 12.179688 -5.53125 13.234375 -5.53125 C 14.316406 -5.53125 15.171875 -5.773438 15.796875 -6.265625 C 16.421875 -6.765625 16.734375 -7.457031 16.734375 -8.34375 C 16.734375 -9.082031 16.484375 -9.691406 15.984375 -10.171875 C 15.484375 -10.648438 14.867188 -11.046875 14.140625 -11.359375 C 13.421875 -11.671875 12.394531 -12.023438 11.0625 -12.421875 C 9.132812 -13.023438 7.5625 -13.625 6.34375 -14.21875 C 5.125 -14.8125 4.070312 -15.6875 3.1875 -16.84375 C 2.3125 -18.007812 1.875 -19.53125 1.875 -21.40625 C 1.875 -24.1875 2.878906 -26.363281 4.890625 -27.9375 C 6.910156 -29.507812 9.535156 -30.296875 12.765625 -30.296875 C 16.054688 -30.296875 18.707031 -29.507812 20.71875 -27.9375 C 22.738281 -26.363281 23.820312 -24.171875 23.96875 -21.359375 L 16.09375 -21.359375 C 16.03125 -22.328125 15.671875 -23.085938 15.015625 -23.640625 C 14.367188 -24.191406 13.535156 -24.46875 12.515625 -24.46875 C 11.628906 -24.46875 10.914062 -24.234375 10.375 -23.765625 C 9.84375 -23.296875 9.578125 -22.625 9.578125 -21.75 C 9.578125 -20.78125 10.03125 -20.023438 10.9375 -19.484375 C 11.84375 -18.953125 13.257812 -18.375 15.1875 -17.75 C 17.125 -17.09375 18.691406 -16.46875 19.890625 -15.875 C 21.097656 -15.28125 22.140625 -14.414062 23.015625 -13.28125 C 23.898438 -12.144531 24.34375 -10.679688 24.34375 -8.890625 C 24.34375 -7.191406 23.910156 -5.644531 23.046875 -4.25 C 22.179688 -2.863281 20.925781 -1.757812 19.28125 -0.9375 C 17.632812 -0.113281 15.691406 0.296875 13.453125 0.296875 Z M 13.453125 0.296875 "/></g></g></g><g fill="#05b9d8" fill-opacity="1"><g transform="translate(1075.99153, 571.298391)"><g><path d="M 24.140625 -29.875 L 24.140625 -24.046875 L 16.21875 -24.046875 L 16.21875 0 L 8.9375 0 L 8.9375 -24.046875 L 1.015625 -24.046875 L 1.015625 -29.875 Z M 24.140625 -29.875 "/></g></g></g><g fill="#05b9d8" fill-opacity="1"><g transform="translate(1101.997426, 571.298391)"><g><path d="M 16.765625 0.296875 C 13.960938 0.296875 11.390625 -0.351562 9.046875 -1.65625 C 6.703125 -2.96875 4.84375 -4.789062 3.46875 -7.125 C 2.09375 -9.46875 1.40625 -12.101562 1.40625 -15.03125 C 1.40625 -17.945312 2.09375 -20.566406 3.46875 -22.890625 C 4.84375 -25.222656 6.703125 -27.039062 9.046875 -28.34375 C 11.390625 -29.644531 13.960938 -30.296875 16.765625 -30.296875 C 19.578125 -30.296875 22.148438 -29.644531 24.484375 -28.34375 C 26.828125 -27.039062 28.671875 -25.222656 30.015625 -22.890625 C 31.367188 -20.566406 32.046875 -17.945312 32.046875 -15.03125 C 32.046875 -12.101562 31.363281 -9.46875 30 -7.125 C 28.644531 -4.789062 26.800781 -2.96875 24.46875 -1.65625 C 22.144531 -0.351562 19.578125 0.296875 16.765625 0.296875 Z M 16.765625 -6.34375 C 19.148438 -6.34375 21.054688 -7.132812 22.484375 -8.71875 C 23.921875 -10.3125 24.640625 -12.414062 24.640625 -15.03125 C 24.640625 -17.664062 23.921875 -19.769531 22.484375 -21.34375 C 21.054688 -22.914062 19.148438 -23.703125 16.765625 -23.703125 C 14.359375 -23.703125 12.4375 -22.921875 11 -21.359375 C 9.570312 -19.804688 8.859375 -17.695312 8.859375 -15.03125 C 8.859375 -12.382812 9.570312 -10.273438 11 -8.703125 C 12.4375 -7.128906 14.359375 -6.34375 16.765625 -6.34375 Z M 16.765625 -6.34375 "/></g></g></g><g fill="#05b9d8" fill-opacity="1"><g transform="translate(1136.303012, 571.298391)"><g><path d="M 36.46875 -29.875 L 36.46875 0 L 29.203125 0 L 29.203125 -17.921875 L 22.515625 0 L 16.640625 0 L 9.921875 -17.96875 L 9.921875 0 L 2.640625 0 L 2.640625 -29.875 L 11.234375 -29.875 L 19.625 -9.1875 L 27.921875 -29.875 Z M 36.46875 -29.875 "/></g></g></g><g fill="#05b9d8" fill-opacity="1"><g transform="translate(1176.226857, 571.298391)"><g><path d="M 9.921875 -24.046875 L 9.921875 -18 L 19.65625 -18 L 19.65625 -12.390625 L 9.921875 -12.390625 L 9.921875 -5.828125 L 20.9375 -5.828125 L 20.9375 0 L 2.640625 0 L 2.640625 -29.875 L 20.9375 -29.875 L 20.9375 -24.046875 Z M 9.921875 -24.046875 "/></g></g></g><g fill="#05b9d8" fill-opacity="1"><g transform="translate(1200.104611, 571.298391)"><g><path d="M 17.875 0 L 11.65625 -11.28125 L 9.921875 -11.28125 L 9.921875 0 L 2.640625 0 L 2.640625 -29.875 L 14.859375 -29.875 C 17.210938 -29.875 19.21875 -29.460938 20.875 -28.640625 C 22.53125 -27.816406 23.769531 -26.6875 24.59375 -25.25 C 25.414062 -23.820312 25.828125 -22.226562 25.828125 -20.46875 C 25.828125 -18.488281 25.265625 -16.71875 24.140625 -15.15625 C 23.023438 -13.59375 21.378906 -12.484375 19.203125 -11.828125 L 26.09375 0 Z M 9.921875 -16.421875 L 14.421875 -16.421875 C 15.753906 -16.421875 16.753906 -16.75 17.421875 -17.40625 C 18.085938 -18.0625 18.421875 -18.984375 18.421875 -20.171875 C 18.421875 -21.304688 18.085938 -22.195312 17.421875 -22.84375 C 16.753906 -23.5 15.753906 -23.828125 14.421875 -23.828125 L 9.921875 -23.828125 Z M 9.921875 -16.421875 "/></g></g></g><g fill="#05b9d8" fill-opacity="1"><g transform="translate(1228.706828, 571.298391)"><g/></g></g><g fill="#05b9d8" fill-opacity="1"><g transform="translate(1238.5815, 571.298391)"><g><path d="M 30.6875 -29.875 L 20.09375 0 L 10.984375 0 L 0.390625 -29.875 L 8.125 -29.875 L 15.53125 -7.328125 L 22.984375 -29.875 Z M 30.6875 -29.875 "/></g></g></g><g fill="#05b9d8" fill-opacity="1"><g transform="translate(1270.503579, 571.298391)"><g><path d="M 9.921875 -29.875 L 9.921875 0 L 2.640625 0 L 2.640625 -29.875 Z M 9.921875 -29.875 "/></g></g></g><g fill="#05b9d8" fill-opacity="1"><g transform="translate(1283.910973, 571.298391)"><g><path d="M 9.921875 -24.046875 L 9.921875 -18 L 19.65625 -18 L 19.65625 -12.390625 L 9.921875 -12.390625 L 9.921875 -5.828125 L 20.9375 -5.828125 L 20.9375 0 L 2.640625 0 L 2.640625 -29.875 L 20.9375 -29.875 L 20.9375 -24.046875 Z M 9.921875 -24.046875 "/></g></g></g><g fill="#05b9d8" fill-opacity="1"><g transform="translate(1307.788749, 571.298391)"><g><path d="M 43.75 -29.875 L 35.96875 0 L 27.15625 0 L 22.390625 -19.65625 L 17.453125 0 L 8.640625 0 L 1.0625 -29.875 L 8.859375 -29.875 L 13.15625 -8.125 L 18.46875 -29.875 L 26.46875 -29.875 L 31.578125 -8.125 L 35.921875 -29.875 Z M 43.75 -29.875 "/></g></g></g><g fill="#b2afaf" fill-opacity="1"><g transform="translate(146.78808, 571.298367)"><g><path d="M 21.234375 -5.28125 L 10.09375 -5.28125 L 8.296875 0 L 0.6875 0 L 11.484375 -29.875 L 19.921875 -29.875 L 30.734375 0 L 23.03125 0 Z M 19.359375 -10.890625 L 15.65625 -21.828125 L 12 -10.890625 Z M 19.359375 -10.890625 "/></g></g></g><g fill="#b2afaf" fill-opacity="1"><g transform="translate(179.008106, 571.298367)"><g><path d="M 13.828125 -29.875 C 16.984375 -29.875 19.738281 -29.25 22.09375 -28 C 24.445312 -26.757812 26.269531 -25.007812 27.5625 -22.75 C 28.851562 -20.488281 29.5 -17.882812 29.5 -14.9375 C 29.5 -12.019531 28.851562 -9.425781 27.5625 -7.15625 C 26.269531 -4.882812 24.4375 -3.125 22.0625 -1.875 C 19.695312 -0.625 16.953125 0 13.828125 0 L 2.640625 0 L 2.640625 -29.875 Z M 13.359375 -6.296875 C 16.117188 -6.296875 18.265625 -7.046875 19.796875 -8.546875 C 21.328125 -10.054688 22.09375 -12.1875 22.09375 -14.9375 C 22.09375 -17.6875 21.328125 -19.828125 19.796875 -21.359375 C 18.265625 -22.898438 16.117188 -23.671875 13.359375 -23.671875 L 9.921875 -23.671875 L 9.921875 -6.296875 Z M 13.359375 -6.296875 "/></g></g></g><g fill="#b2afaf" fill-opacity="1"><g transform="translate(210.802503, 571.298367)"><g><path d="M 36.46875 -29.875 L 36.46875 0 L 29.203125 0 L 29.203125 -17.921875 L 22.515625 0 L 16.640625 0 L 9.921875 -17.96875 L 9.921875 0 L 2.640625 0 L 2.640625 -29.875 L 11.234375 -29.875 L 19.625 -9.1875 L 27.921875 -29.875 Z M 36.46875 -29.875 "/></g></g></g><g fill="#b2afaf" fill-opacity="1"><g transform="translate(250.726348, 571.298367)"><g><path d="M 9.921875 -29.875 L 9.921875 0 L 2.640625 0 L 2.640625 -29.875 Z M 9.921875 -29.875 "/></g></g></g><g fill="#b2afaf" fill-opacity="1"><g transform="translate(264.133731, 571.298367)"><g><path d="M 29.375 0 L 22.09375 0 L 9.921875 -18.421875 L 9.921875 0 L 2.640625 0 L 2.640625 -29.875 L 9.921875 -29.875 L 22.09375 -11.359375 L 22.09375 -29.875 L 29.375 -29.875 Z M 29.375 0 "/></g></g></g></svg>